# xmcd
#
# Track frame offsets: 
#        150
#        12021
#        30759
#        51696
#        63647
#        83041
#        99873
#        114417
#        127911
#        140921
#        160524
#        178215
#        199149
#        213753
#        230235
#        247127
#        268630
#        287132
#        310527
#        326189
#
# Disc length: 4582 seconds
#
# Revision: 2
# Processed by: cddbd v1.5.2PL0 Copyright (c) Steve Scherf et al.
# Submitted via: ExactAudioCopy v0.99pb5
#
DISCID=1f11e414
DTITLE=Jacques Brel - Les 100 plus belles chansons CD5
DYEAR=2006
DGENRE=Chanson
TTITLE0=La quête
TTITLE1=Je suis un soir d'été
TTITLE2=Regarde bien petit
TTITLE3=Comment tuer l'amant de sa femme quand on a été élevé comme mo
TTITLE3=i dans la tradition
TTITLE4=L'éclusier
TTITLE5=Un enfant
TTITLE6=La bière
TTITLE7=La chanson de Van Horst
TTITLE8=L'enfance
TTITLE9=Orly
TTITLE10=Voir un ami pleurer
TTITLE11=La ville s'endormait
TTITLE12=Jojo
TTITLE13=Jaurès
TTITLE14=Vieillir
TTITLE15=Le bon Dieu
TTITLE16=Les remparts de Varsovie
TTITLE17=Knokke-Le-Zoute Tango
TTITLE18=Le lion
TTITLE19=Les Marquises
EXTD=YEAR: 2006
EXTT0=
EXTT1=
EXTT2=
EXTT3=
EXTT4=
EXTT5=
EXTT6=
EXTT7=
EXTT8=
EXTT9=
EXTT10=
EXTT11=
EXTT12=
EXTT13=
EXTT14=
EXTT15=
EXTT16=
EXTT17=
EXTT18=
EXTT19=
PLAYORDER=
